<?xml version="1.0" encoding="UTF-8" standalone="no"?>
<svg width="502px" height="593px" viewBox="0 0 502 593" version="1.1" xmlns="http://www.w3.org/2000/svg" xmlns:xlink="http://www.w3.org/1999/xlink" xmlns:sketch="http://www.bohemiancoding.com/sketch/ns">
    <!-- Generator: Sketch 3.4.4 (17249) - http://www.bohemiancoding.com/sketch -->
    <title>Bob</title>
    <desc>Created with Sketch.</desc>
    <defs></defs>
    <g id="Page-1" stroke="none" stroke-width="1" fill="none" fill-rule="evenodd" sketch:type="MSPage">
        <g id="Minions" sketch:type="MSArtboardGroup" transform="translate(-2079.000000, -1065.000000)">
            <g id="Bob" sketch:type="MSLayerGroup" transform="translate(2079.000000, 1064.000000)">
                <path d="M475.9,481.5 L446.43,481.5 L446.43,412.172 C446.43,362.546 434.508,334.718 405.258,316.124 L421.072,291.266 C469.666,322.164 475.9,372.11 475.9,412.172 L475.9,481.5" id="Fill-1" fill="#F1C40F" sketch:type="MSShapeGroup"></path>
                <path d="M501.166,538.872 L501.166,507.58 L453.166,497.5 L453.166,538.872 C453.166,551.37 463.296,561.5 475.794,561.5 L478.538,561.5 C491.034,561.5 501.166,551.37 501.166,538.872" id="Fill-2" fill="#323232" sketch:type="MSShapeGroup"></path>
                <path d="M461.166,545.5 L461.166,513.5 L429.166,513.5 L429.166,545.5 C429.166,554.336 436.33,561.5 445.166,561.5 C454.002,561.5 461.166,554.336 461.166,545.5" id="Fill-3" fill="#323232" sketch:type="MSShapeGroup"></path>
                <path d="M441.976,539.806 L495.756,515.904 C499.046,514.442 501.166,511.18 501.166,507.58 C501.166,493.176 489.49,481.5 475.086,481.5 L455.246,481.5 C440.842,481.5 429.166,493.176 429.166,507.58 L429.166,531.482 C429.166,538.074 435.95,542.484 441.976,539.806" id="Fill-4" fill="#323232" sketch:type="MSShapeGroup"></path>
                <path d="M445.166,513.5 C445.166,522.336 438.002,529.5 429.166,529.5 C420.33,529.5 413.166,522.336 413.166,513.5 C413.166,504.664 420.33,497.5 429.166,497.5 C438.002,497.5 445.166,504.664 445.166,513.5" id="Fill-5" fill="#323232" sketch:type="MSShapeGroup"></path>
                <path d="M413.166,513.5 L477.166,513.5 L477.166,481.5 L445.166,481.5 C427.492,481.5 413.166,495.826 413.166,513.5" id="Fill-6" fill="#323232" sketch:type="MSShapeGroup"></path>
                <path d="M445.166,481.5 L477.166,481.5 C481.584,481.5 485.166,477.918 485.166,473.5 C485.166,469.08 481.584,465.5 477.166,465.5 L445.166,465.5 C440.746,465.5 437.166,469.08 437.166,473.5 C437.166,477.918 440.746,481.5 445.166,481.5" id="Fill-7" fill="#323232" sketch:type="MSShapeGroup"></path>
                <path d="M429.164,385.5 L429.164,193.502 C429.164,87.46 343.204,1.5 237.166,1.5 C131.128,1.5 45.164,87.46 45.164,193.502 L45.164,385.5 L429.164,385.5" id="Fill-8" fill="#F1C40F" sketch:type="MSShapeGroup"></path>
                <path d="M429.166,385.5 L45.164,385.5 L45.164,399.91 C45.164,405.91 45.766,411.754 46.664,417.5 L46.44,417.5 C54.22,471.756 100.758,513.5 157.166,513.5 L317.166,513.5 C373.572,513.5 420.11,471.756 427.892,417.5 L427.666,417.5 C428.564,411.754 429.166,405.91 429.166,399.91 L429.166,385.5" id="Fill-9" fill="#2980B9" sketch:type="MSShapeGroup"></path>
                <path d="M428.826,201.5 L45.506,201.5 C40.9,201.5 37.166,197.766 37.166,193.16 L37.166,145.84 C37.166,141.234 40.9,137.5 45.506,137.5 L428.826,137.5 C433.43,137.5 437.166,141.234 437.166,145.84 L437.166,193.16 C437.166,197.766 433.43,201.5 428.826,201.5" id="Fill-10" fill="#323232" sketch:type="MSShapeGroup"></path>
                <path d="M356.134,433.5 L118.196,433.5 C113.208,433.5 109.166,429.456 109.166,424.47 L109.166,362.53 C109.166,357.544 113.208,353.5 118.196,353.5 L356.134,353.5 C361.122,353.5 365.166,357.544 365.166,362.53 L365.166,424.47 C365.166,429.456 361.122,433.5 356.134,433.5" id="Fill-11" fill="#2980B9" sketch:type="MSShapeGroup"></path>
                <path d="M173.166,433.5 C169.244,433.5 165.306,432.07 162.228,429.172 L34.228,309.172 C27.774,303.132 27.446,293 33.494,286.554 C39.54,280.102 49.664,279.774 56.102,285.828 L184.102,405.828 C190.556,411.868 190.884,422 184.838,428.446 C181.68,431.804 177.432,433.5 173.166,433.5" id="Fill-12" fill="#2980B9" sketch:type="MSShapeGroup"></path>
                <path d="M301.166,433.5 C297.072,433.5 292.978,431.938 289.852,428.812 C283.604,422.562 283.604,412.438 289.852,406.188 L417.854,278.188 C424.102,271.938 434.228,271.938 440.478,278.188 C446.728,284.438 446.728,294.562 440.478,300.812 L312.478,428.812 C309.352,431.938 305.26,433.5 301.166,433.5" id="Fill-13" fill="#2980B9" sketch:type="MSShapeGroup"></path>
                <path d="M141.166,497.5 L173.166,561.5 L221.166,561.5 L221.166,481.5 L141.166,497.5" id="Fill-14" fill="#2980B9" sketch:type="MSShapeGroup"></path>
                <path d="M333.166,497.5 L301.166,561.5 L253.166,561.5 L253.166,481.5 L333.166,497.5" id="Fill-15" fill="#2980B9" sketch:type="MSShapeGroup"></path>
                <path d="M221.166,561.5 L221.166,593.5 L125.166,593.5 C125.166,593.5 129.166,561.5 173.166,561.5 L221.166,561.5" id="Fill-16" fill="#323232" sketch:type="MSShapeGroup"></path>
                <path d="M253.166,561.5 L253.166,593.5 L349.166,593.5 C349.166,593.5 345.166,561.5 301.166,561.5 L253.166,561.5" id="Fill-17" fill="#323232" sketch:type="MSShapeGroup"></path>
                <path d="M173.166,385.5 L301.166,385.5 L301.166,417.5 C301.166,444.01 272.512,465.5 237.166,465.5 C201.82,465.5 173.166,444.01 173.166,417.5 L173.166,385.5" id="Fill-18" fill="#1E628F" sketch:type="MSShapeGroup"></path>
                <path d="M236.438,169.5 C236.438,217.7 197.364,256.772 149.166,256.772 C100.966,256.772 61.892,217.7 61.892,169.5 C61.892,121.3 100.966,82.228 149.166,82.228 C197.364,82.228 236.438,121.3 236.438,169.5" id="Fill-19" fill="#FFFFFF" sketch:type="MSShapeGroup"></path>
                <path d="M197.166,177.5 C197.166,195.172 182.838,209.5 165.166,209.5 C147.492,209.5 133.166,195.172 133.166,177.5 C133.166,159.826 147.492,145.5 165.166,145.5 C182.838,145.5 197.166,159.826 197.166,177.5" id="Fill-20" fill="#6E9140" sketch:type="MSShapeGroup"></path>
                <path d="M181.166,177.5 C181.166,186.336 174.002,193.5 165.166,193.5 C156.33,193.5 149.166,186.336 149.166,177.5 C149.166,168.664 156.33,161.5 165.166,161.5 C174.002,161.5 181.166,168.664 181.166,177.5" id="Fill-21" fill="#323232" sketch:type="MSShapeGroup"></path>
                <path d="M412.44,169.5 C412.44,217.7 373.364,256.772 325.166,256.772 C276.966,256.772 237.892,217.7 237.892,169.5 C237.892,121.3 276.966,82.228 325.166,82.228 C373.364,82.228 412.44,121.3 412.44,169.5" id="Fill-22" fill="#FFFFFF" sketch:type="MSShapeGroup"></path>
                <path d="M341.166,177.5 C341.166,195.172 326.838,209.5 309.166,209.5 C291.492,209.5 277.166,195.172 277.166,177.5 C277.166,159.826 291.492,145.5 309.166,145.5 C326.838,145.5 341.166,159.826 341.166,177.5" id="Fill-23" fill="#9A4E2C" sketch:type="MSShapeGroup"></path>
                <path d="M325.166,177.5 C325.166,186.336 318.002,193.5 309.166,193.5 C300.33,193.5 293.166,186.336 293.166,177.5 C293.166,168.664 300.33,161.5 309.166,161.5 C318.002,161.5 325.166,168.664 325.166,177.5" id="Fill-24" fill="#323232" sketch:type="MSShapeGroup"></path>
                <path d="M53.166,436.166 L101.832,436.166 L101.832,472.166 L53.166,472.166 L53.166,436.166 Z" id="Fill-25" fill="#323232" sketch:type="MSShapeGroup"></path>
                <path d="M45.164,321.5 C45.164,321.5 -82.834,486.59 93.166,497.5" id="Fill-26" fill="#F1C431" sketch:type="MSShapeGroup"></path>
                <path d="M203.43,476.982 L203.43,476.982 C185.592,490.016 160.566,486.122 147.534,468.284 L138.094,455.366 C125.06,437.528 128.954,412.502 146.792,399.47 C164.628,386.436 189.654,390.33 202.688,408.168 L212.128,421.086 C225.16,438.924 221.266,463.95 203.43,476.982" id="Fill-27" fill="#825338" sketch:type="MSShapeGroup"></path>
                <path d="M164.196,440.492 C154.946,440.492 146.134,435.118 142.196,426.102 C136.884,413.954 142.416,399.804 154.572,394.492 L222.15,364.938 C234.322,359.618 248.43,365.172 253.744,377.312 C259.056,389.46 253.524,403.61 241.368,408.922 L173.79,438.476 C170.666,439.844 167.4,440.492 164.196,440.492" id="Fill-28" fill="#825338" sketch:type="MSShapeGroup"></path>
                <path d="M180.586,537.508 C171.104,537.508 162.134,531.86 158.338,522.538 L133.494,461.422 C128.508,449.14 134.416,435.14 146.696,430.148 C158.962,425.148 172.962,431.07 177.962,443.344 L202.806,504.46 C207.79,516.742 201.884,530.742 189.602,535.734 C186.65,536.938 183.586,537.508 180.586,537.508" id="Fill-29" fill="#825338" sketch:type="MSShapeGroup"></path>
                <path d="M245.15,490.304 C239.728,490.304 234.29,488.484 229.806,484.742 L179.134,442.508 C168.946,434.024 167.572,418.882 176.056,408.704 C184.556,398.516 199.68,397.148 209.852,405.632 L260.524,447.868 C270.712,456.352 272.086,471.492 263.602,481.672 C258.854,487.368 252.024,490.304 245.15,490.304" id="Fill-30" fill="#825338" sketch:type="MSShapeGroup"></path>
                <path d="M55.806,468.054 C44.166,468.054 33.696,459.93 31.182,448.07 C28.29,434.452 36.978,421.062 50.602,418.172 L152.494,396.546 C166.04,393.664 179.478,402.352 182.384,415.976 C185.274,429.594 176.588,442.984 162.962,445.874 L61.072,467.5 C59.306,467.874 57.54,468.054 55.806,468.054" id="Fill-31" fill="#825338" sketch:type="MSShapeGroup"></path>
                <path d="M160.25,505.562 L129.802,512.79 L108.912,468.414 L149.166,458.86 C161.324,455.974 173.52,463.492 176.406,475.65 L177.04,478.322 C179.926,490.48 172.41,502.676 160.25,505.562" id="Fill-32" fill="#323232" sketch:type="MSShapeGroup"></path>
                <path d="M157.462,465.114 L126.326,472.504 L118.936,441.368 L150.072,433.978 C158.67,431.938 167.294,437.254 169.334,445.852 C171.374,454.448 166.058,463.072 157.462,465.114" id="Fill-33" fill="#323232" sketch:type="MSShapeGroup"></path>
                <path d="M147.49,447.756 L136.654,505.604 C135.99,509.142 133.306,511.958 129.802,512.79 C115.79,516.116 101.732,507.45 98.406,493.436 L93.824,474.132 C90.496,460.118 99.162,446.062 113.176,442.736 L136.432,437.216 C142.846,435.694 148.704,441.276 147.49,447.756" id="Fill-34" fill="#323232" sketch:type="MSShapeGroup"></path>
                <path d="M122.63,456.936 C131.228,454.896 136.544,446.27 134.504,437.674 C132.464,429.076 123.84,423.76 115.242,425.8 C106.644,427.842 101.328,436.466 103.368,445.062 C105.41,453.66 114.034,458.976 122.63,456.936" id="Fill-35" fill="#323232" sketch:type="MSShapeGroup"></path>
                <path d="M115.242,425.8 L130.02,488.07 L98.886,495.46 L91.496,464.326 C87.416,447.13 98.046,429.882 115.242,425.8" id="Fill-36" fill="#323232" sketch:type="MSShapeGroup"></path>
                <path d="M94.674,464.344 L101.716,494.016 C102.834,498.718 99.926,503.436 95.222,504.552 L93.68,504.918 C88.978,506.034 84.26,503.126 83.144,498.424 L76.102,468.752 C74.986,464.05 77.894,459.332 82.596,458.216 L84.138,457.85 C88.842,456.734 93.558,459.642 94.674,464.344" id="Fill-37" fill="#323232" sketch:type="MSShapeGroup"></path>
                <path d="M331.102,286.96 C329.126,286.96 327.182,287.934 326.04,289.726 C311.51,312.392 277.602,327.038 239.666,327.038 C201.726,327.038 167.822,312.392 153.29,289.726 C152.148,287.934 150.204,286.96 148.228,286.96 C147.12,286.96 146.002,287.266 145.008,287.904 C142.212,289.696 141.398,293.408 143.196,296.196 C159.87,322.228 197.744,339.04 239.666,339.04 C281.588,339.04 319.462,322.228 336.134,296.196 C337.93,293.408 337.12,289.696 334.322,287.904 C333.328,287.266 332.212,286.96 331.102,286.96" id="Fill-38" fill="#EBAD07" sketch:type="MSShapeGroup"></path>
                <path d="M186.046,323.154 C206.9,351.694 197.778,393.848 165.672,417.308 C133.564,440.768 90.63,436.65 69.778,408.11 C48.926,379.57 58.048,337.416 90.154,313.956 C122.262,290.496 165.196,294.614 186.046,323.154" id="Fill-39" fill="#8C5A3C" sketch:type="MSShapeGroup"></path>
                <path d="M84.936,347.494 C92.756,358.196 90.42,373.212 79.716,381.032 C69.014,388.852 54,386.514 46.18,375.812 C38.36,365.11 40.696,350.096 51.398,342.276 C62.1,334.456 77.116,336.792 84.936,347.494" id="Fill-40" fill="#8C5A3C" sketch:type="MSShapeGroup"></path>
                <path d="M118.224,372.712 C122.134,378.062 120.964,385.57 115.614,389.48 C110.264,393.39 102.754,392.222 98.846,386.87 C94.936,381.52 96.104,374.012 101.456,370.102 C106.806,366.192 114.314,367.36 118.224,372.712" id="Fill-41" fill="#BE9664" sketch:type="MSShapeGroup"></path>
                <path d="M156.98,344.392 C160.89,349.744 159.722,357.252 154.37,361.162 C149.02,365.072 141.512,363.904 137.602,358.552 C133.692,353.2 134.86,345.694 140.212,341.784 C145.562,337.874 153.07,339.042 156.98,344.392" id="Fill-42" fill="#BE9664" sketch:type="MSShapeGroup"></path>
                <path d="M151.76,377.93 C154.368,381.498 152.144,387.56 146.792,391.47 C141.44,395.38 134.99,395.658 132.384,392.09 C129.776,388.522 132,382.46 137.354,378.55 C142.704,374.64 149.154,374.362 151.76,377.93" id="Fill-43" fill="#503C1D" sketch:type="MSShapeGroup"></path>
                <path d="M162.448,290.856 C170.268,301.56 167.932,316.574 157.23,324.394 C146.528,332.214 131.512,329.878 123.692,319.176 C115.872,308.474 118.21,293.458 128.91,285.638 C139.614,277.818 154.63,280.154 162.448,290.856" id="Fill-44" fill="#8C5A3C" sketch:type="MSShapeGroup"></path>
                <path d="M106.916,387.75 C106.728,387.75 106.54,387.726 106.352,387.672 C105.29,387.352 104.682,386.242 104.994,385.18 L108.244,374.18 C108.572,373.124 109.696,372.524 110.728,372.828 C111.79,373.148 112.4,374.258 112.088,375.32 L108.838,386.32 C108.572,387.188 107.776,387.75 106.916,387.75" id="Fill-45" fill="#A57D52" sketch:type="MSShapeGroup"></path>
                <path d="M145.666,359 C145.478,359 145.29,358.976 145.102,358.922 C144.04,358.602 143.43,357.492 143.744,356.43 L146.994,345.43 C147.338,344.374 148.43,343.782 149.478,344.078 C150.54,344.398 151.15,345.508 150.838,346.57 L147.586,357.57 C147.322,358.438 146.524,359 145.666,359" id="Fill-46" fill="#A57D52" sketch:type="MSShapeGroup"></path>
                <path d="M149.166,243.346 C108.384,243.346 75.32,210.284 75.32,169.5 C75.32,128.714 108.384,95.654 149.166,95.654 C189.946,95.654 223.012,128.714 223.012,169.5 C223.012,210.284 189.946,243.346 149.166,243.346 M149.166,269.5 C204.304,269.5 249.166,224.64 249.166,169.5 C249.166,114.36 204.304,69.5 149.166,69.5 C94.028,69.5 49.166,114.36 49.166,169.5 C49.166,224.64 94.028,269.5 149.166,269.5" id="Fill-47" fill="#8C8C8C" sketch:type="MSShapeGroup"></path>
                <path d="M325.166,243.346 C284.384,243.346 251.32,210.284 251.32,169.5 C251.32,128.714 284.384,95.654 325.166,95.654 C365.946,95.654 399.012,128.714 399.012,169.5 C399.012,210.284 365.946,243.346 325.166,243.346 M325.166,269.5 C380.304,269.5 425.166,224.64 425.166,169.5 C425.166,114.36 380.304,69.5 325.166,69.5 C270.028,69.5 225.166,114.36 225.166,169.5 C225.166,224.64 270.028,269.5 325.166,269.5" id="Fill-48" fill="#8C8C8C" sketch:type="MSShapeGroup"></path>
            </g>
        </g>
    </g>
</svg>