<?xml version="1.0" encoding="UTF-8" standalone="no"?>
<svg width="496px" height="915px" viewBox="0 0 496 915" version="1.1" xmlns="http://www.w3.org/2000/svg" xmlns:xlink="http://www.w3.org/1999/xlink" xmlns:sketch="http://www.bohemiancoding.com/sketch/ns">
    <!-- Generator: Sketch 3.4.4 (17249) - http://www.bohemiancoding.com/sketch -->
    <title>Kevin</title>
    <desc>Created with Sketch.</desc>
    <defs></defs>
    <g id="Page-1" stroke="none" stroke-width="1" fill="none" fill-rule="evenodd" sketch:type="MSPage">
        <g id="Minions" sketch:type="MSArtboardGroup" transform="translate(-1372.000000, -742.000000)">
            <g id="Kevin" sketch:type="MSLayerGroup" transform="translate(1371.000000, 742.000000)">
                <path d="M241,96.486 L265,96.486 L265,128.486 L241,128.486 L241,96.486 Z" id="Fill-1" fill="#323232" sketch:type="MSShapeGroup"></path>
                <path d="M185,32.486 C185,32.486 233,77.486 233,128.486 L249,128.486 C249,128.486 244,67.486 185,32.486" id="Fill-2" fill="#323232" sketch:type="MSShapeGroup"></path>
                <path d="M313,32.486 C312.998,32.486 265,77.486 265,128.486 L249,128.486 C249,128.486 254,67.486 313,32.486" id="Fill-3" fill="#323232" sketch:type="MSShapeGroup"></path>
                <path d="M193,0.486 C192.998,0.486 241,45.486 241,96.486 L257,96.486 C257,96.486 252,35.486 193,0.486" id="Fill-4" fill="#323232" sketch:type="MSShapeGroup"></path>
                <path d="M305,0.486 C305,0.486 257,45.486 257,96.486 L241,96.486 C240.998,96.486 246,35.486 305,0.486" id="Fill-5" fill="#323232" sketch:type="MSShapeGroup"></path>
                <path d="M56.374,786.288 L25.624,786.288 L25.624,690.288 C25.624,646.976 31.828,592.952 80.234,559.406 L104.374,542.68 L104.374,608.484 L74.28,608.484 C61.796,627.68 56.374,653.554 56.374,690.288 L56.374,786.288" id="Fill-6" fill="#F1C40F" sketch:type="MSShapeGroup"></path>
                <path d="M1,843.662 L1,812.37 L49,802.29 L49,843.662 C49,856.16 38.868,866.29 26.372,866.29 L23.626,866.29 C11.13,866.29 1,856.16 1,843.662" id="Fill-7" fill="#323232" sketch:type="MSShapeGroup"></path>
                <path d="M41,850.29 L41,818.29 L73,818.29 L73,850.29 C73,859.126 65.836,866.29 57,866.29 C48.164,866.29 41,859.126 41,850.29" id="Fill-8" fill="#323232" sketch:type="MSShapeGroup"></path>
                <path d="M60.19,844.596 L6.41,820.694 C3.12,819.232 1,815.97 1,812.37 C1,797.966 12.676,786.29 27.08,786.29 L46.92,786.29 C61.322,786.29 73,797.966 73,812.37 L73,836.272 C73,842.864 66.214,847.274 60.19,844.596" id="Fill-9" fill="#323232" sketch:type="MSShapeGroup"></path>
                <path d="M57,818.29 C57,827.126 64.162,834.29 73,834.29 C81.836,834.29 89,827.126 89,818.29 C89,809.454 81.836,802.29 73,802.29 C64.162,802.29 57,809.454 57,818.29" id="Fill-10" fill="#323232" sketch:type="MSShapeGroup"></path>
                <path d="M89,818.29 L25,818.29 L25,786.29 L57,786.29 C74.672,786.29 89,800.616 89,818.29" id="Fill-11" fill="#323232" sketch:type="MSShapeGroup"></path>
                <path d="M57,786.288 L25,786.288 C20.58,786.288 17,782.708 17,778.29 L17,778.288 C17,773.87 20.58,770.288 25,770.288 L57,770.288 C61.418,770.288 65,773.87 65,778.288 L65,778.29 C65,782.708 61.418,786.288 57,786.288" id="Fill-12" fill="#323232" sketch:type="MSShapeGroup"></path>
                <path d="M472.374,786.288 L441.624,786.288 L441.624,690.288 C441.624,635.648 429.64,605.054 400.234,584.688 L393.624,580.102 L393.624,546.288 L424.374,546.288 L424.374,564.328 C466.734,598.062 472.374,649.032 472.374,690.288 L472.374,786.288" id="Fill-13" fill="#F1C40F" sketch:type="MSShapeGroup"></path>
                <path d="M497,843.662 L497,812.37 L449,802.29 L449,843.662 C449,856.16 459.13,866.29 471.626,866.29 L474.372,866.29 C486.87,866.29 497,856.16 497,843.662" id="Fill-14" fill="#323232" sketch:type="MSShapeGroup"></path>
                <path d="M457,850.29 L457,818.29 L425,818.29 L425,850.29 C425,859.126 432.164,866.29 441,866.29 C449.836,866.29 457,859.126 457,850.29" id="Fill-15" fill="#323232" sketch:type="MSShapeGroup"></path>
                <path d="M437.808,844.596 L491.59,820.694 C494.88,819.232 497,815.97 497,812.37 C497,797.966 485.324,786.29 470.92,786.29 L451.08,786.29 C436.676,786.29 425,797.966 425,812.37 L425,836.272 C425,842.864 431.784,847.274 437.808,844.596" id="Fill-16" fill="#323232" sketch:type="MSShapeGroup"></path>
                <path d="M441,818.29 C441,827.126 433.836,834.29 425,834.29 C416.162,834.29 409,827.126 409,818.29 C409,809.454 416.162,802.29 425,802.29 C433.836,802.29 441,809.454 441,818.29" id="Fill-17" fill="#323232" sketch:type="MSShapeGroup"></path>
                <path d="M409,818.29 L473,818.29 L473,786.29 L441,786.29 C423.328,786.29 409,800.616 409,818.29" id="Fill-18" fill="#323232" sketch:type="MSShapeGroup"></path>
                <path d="M441,786.288 L473,786.288 C477.418,786.288 481,782.708 481,778.29 L481,778.288 C481,773.87 477.418,770.288 473,770.288 L441,770.288 C436.582,770.288 433,773.87 433,778.288 L433,778.29 C433,782.708 436.582,786.288 441,786.288" id="Fill-19" fill="#323232" sketch:type="MSShapeGroup"></path>
                <path d="M425,716.956 L425,290.29 C425,193.086 346.202,114.288 249,114.288 C151.798,114.288 73,193.086 73,290.29 L73,716.956 L425,716.956" id="Fill-20" fill="#F1C40F" sketch:type="MSShapeGroup"></path>
                <path d="M425,716.956 L73,716.956 L73,730.166 C73,735.664 73.552,741.022 74.374,746.288 L74.166,746.288 C81.3,796.024 123.96,834.288 175.666,834.288 L322.332,834.288 C374.04,834.288 416.7,796.024 423.832,746.288 L423.624,746.288 C424.448,741.022 425,735.664 425,730.166 L425,716.956" id="Fill-21" fill="#2980B9" sketch:type="MSShapeGroup"></path>
                <path d="M425,314.29 L73,314.29 C68.582,314.29 65,310.708 65,306.29 L65,258.288 C65,253.87 68.582,250.288 73,250.288 L425,250.288 C429.418,250.288 433,253.87 433,258.288 L433,306.29 C433,310.708 429.418,314.29 425,314.29" id="Fill-22" fill="#323232" sketch:type="MSShapeGroup"></path>
                <path d="M344.082,754.288 L153.916,754.288 C148.992,754.288 145,750.296 145,745.372 L145,667.206 C145,662.282 148.992,658.288 153.916,658.288 L344.082,658.288 C349.008,658.288 353,662.282 353,667.206 L353,745.372 C353,750.296 349.008,754.288 344.082,754.288" id="Fill-23" fill="#2980B9" sketch:type="MSShapeGroup"></path>
                <path d="M185.016,720.484 C180.282,720.484 175.594,718.39 172.438,714.382 L60.436,572.188 C54.968,565.25 56.156,555.188 63.094,549.718 C70.046,544.234 80.11,545.46 85.562,552.39 L197.562,694.586 C203.03,701.524 201.844,711.586 194.906,717.054 C191.968,719.368 188.468,720.484 185.016,720.484" id="Fill-24" fill="#2980B9" sketch:type="MSShapeGroup"></path>
                <path d="M312.984,720.484 C309.53,720.484 306.03,719.368 303.094,717.054 C296.156,711.586 294.968,701.524 300.436,694.586 L412.438,552.39 C417.89,545.46 427.952,544.234 434.906,549.718 C441.844,555.188 443.03,565.25 437.562,572.188 L325.562,714.382 C322.406,718.39 317.718,720.484 312.984,720.484" id="Fill-25" fill="#2980B9" sketch:type="MSShapeGroup"></path>
                <path d="M153,818.288 L185,882.288 L233,882.288 L233,802.288 L153,818.288" id="Fill-26" fill="#2980B9" sketch:type="MSShapeGroup"></path>
                <path d="M345,818.288 L313,882.288 L265,882.288 L265,802.288 L345,818.288" id="Fill-27" fill="#2980B9" sketch:type="MSShapeGroup"></path>
                <path d="M233,882.288 L233,914.288 L137,914.288 C137,914.288 141,882.288 185,882.288 L233,882.288" id="Fill-28" fill="#323232" sketch:type="MSShapeGroup"></path>
                <path d="M265,882.288 L265,914.288 L361,914.288 C360.998,914.288 357,882.288 313,882.288 L265,882.288" id="Fill-29" fill="#323232" sketch:type="MSShapeGroup"></path>
                <path d="M201,690.288 L297,690.288 L297,722.29 C297,748.798 275.51,770.288 249,770.288 C222.49,770.288 201,748.798 201,722.29 L201,690.288" id="Fill-30" fill="#1D628F" sketch:type="MSShapeGroup"></path>
                <path d="M249,282.288 C249,326.472 213.182,362.29 169,362.29 C124.816,362.29 89,326.472 89,282.288 C89,238.106 124.816,202.288 169,202.288 C213.182,202.288 249,238.106 249,282.288" id="Fill-31" fill="#FFFFFF" sketch:type="MSShapeGroup"></path>
                <path d="M209,290.29 C209,307.962 194.672,322.288 177,322.288 C159.328,322.288 145,307.962 145,290.29 C145,272.616 159.328,258.288 177,258.288 C194.672,258.288 209,272.616 209,290.29" id="Fill-32" fill="#9A4E2C" sketch:type="MSShapeGroup"></path>
                <path d="M193,290.29 C193,299.126 185.836,306.288 177,306.288 C168.164,306.288 161,299.126 161,290.29 C161,281.452 168.164,274.288 177,274.288 C185.836,274.288 193,281.452 193,290.29" id="Fill-33" fill="#323232" sketch:type="MSShapeGroup"></path>
                <path d="M409,282.288 C409,326.472 373.182,362.29 329,362.29 C284.818,362.29 249,326.472 249,282.288 C249,238.106 284.818,202.288 329,202.288 C373.182,202.288 409,238.106 409,282.288" id="Fill-34" fill="#FFFFFF" sketch:type="MSShapeGroup"></path>
                <path d="M353,290.29 C353,307.962 338.672,322.288 321,322.288 C303.328,322.288 289,307.962 289,290.29 C289,272.616 303.328,258.288 321,258.288 C338.672,258.288 353,272.616 353,290.29" id="Fill-35" fill="#9A4E2C" sketch:type="MSShapeGroup"></path>
                <path d="M337,290.29 C337,299.126 329.836,306.288 321,306.288 C312.164,306.288 305,299.126 305,290.29 C305,281.452 312.164,274.288 321,274.288 C329.836,274.288 337,281.452 337,290.29" id="Fill-36" fill="#323232" sketch:type="MSShapeGroup"></path>
                <path d="M169,349.982 C131.616,349.982 101.308,319.676 101.308,282.288 C101.308,244.904 131.616,214.596 169,214.596 C206.382,214.596 236.692,244.904 236.692,282.288 C236.692,319.676 206.382,349.982 169,349.982 M169,374.29 C219.728,374.29 261,333.018 261,282.288 C261,231.56 219.728,190.288 169,190.288 C118.272,190.288 77,231.56 77,282.288 C77,333.018 118.272,374.29 169,374.29" id="Fill-37" fill="#8C8C8C" sketch:type="MSShapeGroup"></path>
                <path d="M329,349.982 C291.616,349.982 261.308,319.676 261.308,282.288 C261.308,244.904 291.616,214.596 329,214.596 C366.382,214.596 396.692,244.904 396.692,282.288 C396.692,319.676 366.382,349.982 329,349.982 M329,374.29 C379.726,374.29 421,333.018 421,282.288 C421,231.56 379.726,190.288 329,190.288 C278.272,190.288 237,231.56 237,282.288 C237,333.018 278.272,374.29 329,374.29" id="Fill-38" fill="#8C8C8C" sketch:type="MSShapeGroup"></path>
                <path d="M297,514.288 C297,536.38 275.51,562.29 249,562.29 C222.49,562.29 201,536.38 201,514.288 C201,492.198 222.49,482.29 249,482.29 C275.51,482.29 297,492.198 297,514.288" id="Fill-39" fill="#323232" sketch:type="MSShapeGroup"></path>
            </g>
        </g>
    </g>
</svg>