<?xml version="1.0" encoding="UTF-8" standalone="no"?>
<svg width="528px" height="690px" viewBox="0 0 528 690" version="1.1" xmlns="http://www.w3.org/2000/svg" xmlns:xlink="http://www.w3.org/1999/xlink" xmlns:sketch="http://www.bohemiancoding.com/sketch/ns">
    <!-- Generator: Sketch 3.4.4 (17249) - http://www.bohemiancoding.com/sketch -->
    <title>Stuart</title>
    <desc>Created with Sketch.</desc>
    <defs></defs>
    <g id="Page-1" stroke="none" stroke-width="1" fill="none" fill-rule="evenodd" sketch:type="MSPage">
        <g id="Minions" sketch:type="MSArtboardGroup" transform="translate(-619.000000, -968.000000)">
            <g id="Stuart" sketch:type="MSLayerGroup" transform="translate(619.000000, 968.000000)">
                <path d="M55.374,577.362 L24.626,577.362 L24.626,501.8 C24.626,458.486 30.828,404.464 79.234,370.916 L96.766,396.198 C67.36,416.564 55.374,447.158 55.374,501.8 L55.374,577.362" id="Fill-1" fill="#F1C40F" sketch:type="MSShapeGroup"></path>
                <path d="M0,634.734 L0,603.442 L48,593.362 L48,634.734 C48,647.232 37.87,657.362 25.374,657.362 L22.628,657.362 C10.132,657.362 0,647.232 0,634.734" id="Fill-2" fill="#323232" sketch:type="MSShapeGroup"></path>
                <path d="M40,641.362 L40,609.362 L72,609.362 L72,641.362 C72,650.198 64.838,657.362 56,657.362 C47.164,657.362 40,650.198 40,641.362" id="Fill-3" fill="#323232" sketch:type="MSShapeGroup"></path>
                <path d="M59.19,635.67 L5.41,611.766 C2.12,610.304 0,607.042 0,603.442 C0,589.038 11.678,577.362 26.08,577.362 L45.92,577.362 C60.324,577.362 72,589.038 72,603.442 L72,627.344 C72,633.936 65.214,638.346 59.19,635.67" id="Fill-4" fill="#323232" sketch:type="MSShapeGroup"></path>
                <path d="M56,609.362 C56,618.198 63.164,625.362 72,625.362 C80.838,625.362 88,618.198 88,609.362 C88,600.526 80.838,593.362 72,593.362 C63.164,593.362 56,600.526 56,609.362" id="Fill-5" fill="#323232" sketch:type="MSShapeGroup"></path>
                <path d="M88,609.362 L24,609.362 L24,577.362 L56,577.362 C73.674,577.362 88,591.688 88,609.362" id="Fill-6" fill="#323232" sketch:type="MSShapeGroup"></path>
                <path d="M56,577.362 L24,577.362 C19.582,577.362 16,573.78 16,569.362 C16,564.944 19.582,561.362 24,561.362 L56,561.362 C60.418,561.362 64,564.944 64,569.362 C64,573.78 60.418,577.362 56,577.362" id="Fill-7" fill="#323232" sketch:type="MSShapeGroup"></path>
                <path d="M503.376,577.362 L472.626,577.362 L472.626,501.8 C472.626,447.158 460.642,416.564 431.234,396.198 L448.766,370.916 C497.172,404.464 503.376,458.486 503.376,501.8 L503.376,577.362" id="Fill-8" fill="#F1C40F" sketch:type="MSShapeGroup"></path>
                <path d="M528,634.734 L528,603.442 L480,593.362 L480,634.734 C480,647.232 490.132,657.362 502.628,657.362 L505.374,657.362 C517.87,657.362 528,647.232 528,634.734" id="Fill-9" fill="#323232" sketch:type="MSShapeGroup"></path>
                <path d="M488,641.362 L488,609.362 L456,609.362 L456,641.362 C456,650.198 463.164,657.362 472,657.362 C480.836,657.362 488,650.198 488,641.362" id="Fill-10" fill="#323232" sketch:type="MSShapeGroup"></path>
                <path d="M468.81,635.67 L522.59,611.766 C525.88,610.304 528,607.042 528,603.442 C528,589.038 516.324,577.362 501.92,577.362 L482.08,577.362 C467.678,577.362 456,589.038 456,603.442 L456,627.344 C456,633.936 462.786,638.346 468.81,635.67" id="Fill-11" fill="#323232" sketch:type="MSShapeGroup"></path>
                <path d="M472,609.362 C472,618.198 464.838,625.362 456,625.362 C447.164,625.362 440,618.198 440,609.362 C440,600.526 447.164,593.362 456,593.362 C464.838,593.362 472,600.526 472,609.362" id="Fill-12" fill="#323232" sketch:type="MSShapeGroup"></path>
                <path d="M440,609.362 L504,609.362 L504,577.362 L472,577.362 C454.328,577.362 440,591.688 440,609.362" id="Fill-13" fill="#323232" sketch:type="MSShapeGroup"></path>
                <path d="M472,577.362 L504,577.362 C508.42,577.362 512,573.78 512,569.362 C512,564.944 508.42,561.362 504,561.362 L472,561.362 C467.582,561.362 464,564.942 464,569.362 C464,573.78 467.582,577.362 472,577.362" id="Fill-14" fill="#323232" sketch:type="MSShapeGroup"></path>
                <path d="M152,95.558 L376,95.558 L410.766,60.796 C376.446,26.57 330.336,4.254 279.024,0.534 L264,15.558 L248.978,0.534 C197.664,4.254 151.554,26.57 117.236,60.796 L152,95.558" id="Fill-15" fill="#323232" sketch:type="MSShapeGroup"></path>
                <path d="M456,481.36 L456,209.362 C456,103.324 370.04,17.36 264.002,17.36 C157.962,17.36 72,103.324 72,209.362 L72,481.36 L456,481.36" id="Fill-16" fill="#F1C40F" sketch:type="MSShapeGroup"></path>
                <path d="M456,481.362 L72,481.362 L72,495.772 C72,501.772 72.602,507.616 73.5,513.362 L73.274,513.362 C81.056,567.618 127.594,609.362 184,609.362 L344,609.362 C400.406,609.362 446.946,567.618 454.726,513.362 L454.5,513.362 C455.398,507.616 456,501.772 456,495.772 L456,481.362" id="Fill-17" fill="#2980B9" sketch:type="MSShapeGroup"></path>
                <path d="M455.66,241.362 L72.34,241.362 C67.736,241.362 64,237.628 64,233.022 L64,185.702 C64,181.096 67.736,177.362 72.34,177.362 L455.66,177.362 C460.266,177.362 464,181.096 464,185.702 L464,233.022 C464,237.628 460.266,241.362 455.66,241.362" id="Fill-18" fill="#323232" sketch:type="MSShapeGroup"></path>
                <path d="M344,209.362 C344,253.544 308.184,289.362 264,289.362 C219.818,289.362 184,253.544 184,209.362 C184,165.18 219.818,129.362 264,129.362 C308.184,129.362 344,165.18 344,209.362" id="Fill-19" fill="#FFFFFF" sketch:type="MSShapeGroup"></path>
                <path d="M300,209.362 C300,229.244 283.882,245.362 264,245.362 C244.118,245.362 228,229.244 228,209.362 C228,189.48 244.118,173.362 264,173.362 C283.882,173.362 300,189.48 300,209.362" id="Fill-20" fill="#9A4E2C" sketch:type="MSShapeGroup"></path>
                <path d="M280,209.362 C280,218.198 272.838,225.362 264,225.362 C255.164,225.362 248,218.198 248,209.362 C248,200.526 255.164,193.362 264,193.362 C272.838,193.362 280,200.526 280,209.362" id="Fill-21" fill="#323232" sketch:type="MSShapeGroup"></path>
                <path d="M382.108,529.362 L145.892,529.362 C140.428,529.362 136,524.932 136,519.47 L136,443.254 C136,437.792 140.428,433.362 145.892,433.362 L382.108,433.362 C387.572,433.362 392,437.792 392,443.254 L392,519.47 C392,524.932 387.572,529.362 382.108,529.362" id="Fill-22" fill="#2980B9" sketch:type="MSShapeGroup"></path>
                <path d="M200,495.558 C196.298,495.558 192.578,494.284 189.564,491.682 L61.562,381.486 C54.86,375.722 54.11,365.62 59.874,358.924 C65.64,352.206 75.766,351.48 82.438,357.236 L210.438,467.432 C217.14,473.198 217.89,483.3 212.124,489.994 C208.97,493.674 204.484,495.558 200,495.558" id="Fill-23" fill="#2980B9" sketch:type="MSShapeGroup"></path>
                <path d="M328,495.558 C323.516,495.558 319.032,493.674 315.876,489.994 C310.11,483.3 310.86,473.198 317.562,467.432 L445.562,357.236 C452.204,351.48 462.36,352.206 468.126,358.924 C473.89,365.62 473.14,375.722 466.438,381.486 L338.438,491.682 C335.422,494.284 331.704,495.558 328,495.558" id="Fill-24" fill="#2980B9" sketch:type="MSShapeGroup"></path>
                <path d="M168,593.362 L200,657.362 L248,657.362 L248,577.362 L168,593.362" id="Fill-25" fill="#2980B9" sketch:type="MSShapeGroup"></path>
                <path d="M360,593.362 L328,657.362 L280,657.362 L280,577.362 L360,593.362" id="Fill-26" fill="#2980B9" sketch:type="MSShapeGroup"></path>
                <path d="M248,657.362 L248,689.362 L152,689.362 C152,689.362 156,657.362 200,657.362 L248,657.362" id="Fill-27" fill="#323232" sketch:type="MSShapeGroup"></path>
                <path d="M280,657.362 L280,689.362 L376,689.362 C376,689.362 372,657.362 328,657.362 L280,657.362" id="Fill-28" fill="#323232" sketch:type="MSShapeGroup"></path>
                <path d="M216,465.362 L312,465.362 L312,497.362 C312,523.872 290.51,545.362 264,545.362 C237.49,545.362 216,523.872 216,497.362 L216,465.362" id="Fill-29" fill="#1E628F" sketch:type="MSShapeGroup"></path>
                <path d="M168,193.362 L360,193.362 L328,145.362 L280,113.362 L248,113.362 L200,145.362 L168,193.362" id="Fill-30" fill="#F1C40F" sketch:type="MSShapeGroup"></path>
                <path d="M264,289.362 C219.82,289.362 184,253.546 184,209.362 C184,165.178 219.82,129.362 264,129.362 C308.18,129.362 344,165.178 344,209.362 C344,253.546 308.18,289.362 264,289.362 M264,313.362 C321.344,313.362 368,266.708 368,209.362 C368,152.016 321.344,105.362 264,105.362 C206.656,105.362 160,152.016 160,209.362 C160,266.708 206.656,313.362 264,313.362" id="Fill-31" fill="#8C8C8C" sketch:type="MSShapeGroup"></path>
                <path d="M264.002,355.33 C239.298,355.33 216.89,361.846 204.078,372.768 C201.548,374.932 201.25,378.744 203.406,381.276 C204.614,382.678 206.312,383.396 208.016,383.396 C209.4,383.396 210.788,382.922 211.924,381.956 C222.438,372.97 242.406,367.392 264.002,367.392 C285.596,367.392 305.562,372.97 316.078,381.956 C317.218,382.924 318.61,383.394 320,383.394 C321.702,383.394 323.39,382.674 324.594,381.276 C326.75,378.744 326.454,374.932 323.92,372.768 C311.11,361.846 288.702,355.33 264.002,355.33" id="Fill-32" fill="#EBAD07" sketch:type="MSShapeGroup"></path>
            </g>
        </g>
    </g>
</svg>